Patient4_TMGait_0pt6_01_left_31_EMG.mot
version=1
nRows=29
nColumns=33
inDegrees=no
endheader
time	1LAddLong	2LGlutMax	3LGlutMed	4LIliopsoas	5LSemiMemb	6LBicFemLong	7LRecFem	8LVastMed	9LVastLat	10LGasMed	11LTibAnt	12lTibPost	13LPeroneusLong	14LSol	15LExtDigLong	16LFlexDigLong	17RAddLong	18RGlutMax	19RGlutMed	20RIliopsoas	21RSemiMemb	22RBicFemLong	23RRecFem	24RVastMed	25RVastLat	26RGasMed	27RTibAnt	28RTibPost	29RPeroneusLong	30RSol	31RExtDigLong	32RFlexDigLong
38.948	0.009308	0.050201	0.020905	0.026855	0.007935	-0.040894	-0.009918	-0.004272	0.027618	-0.033569	0.021057	-0.012512	-0.033417	-0.12726	-0.16525	0.003052	0.016174	0.014191	-0.29648	0.03952	-0.010223	0.13519	0.14847	0.10651	-0.38605	0.003204	-0.23331	-0.001678	0.020294	0.10376	-0.001526	-0.014191
38.949	0.010834	0.030518	-0.000763	0.013275	0.014648	-0.016632	-0.005798	-0.002289	0.044708	-0.048676	0.059204	-0.008392	-0.006561	-0.068054	-0.056305	-0.000153	0.009155	0.031281	-0.3595	0.052032	-0.019531	0.093384	0.086212	0.027771	-0.4985	0.006714	-0.56366	-0.002441	0.03006	0.083923	-0.000763	-0.016022
38.95	0.003662	0.048676	0.023346	0.009308	0.000763	0.005646	-0.015259	-0.006866	0.045471	-0.055237	-0.036011	-0.006866	0.012665	-0.019379	-0.056458	0.004272	0.018311	0.009003	-0.31601	0.014191	0.002441	0.10162	-0.10223	-0.04776	-0.43274	0.000153	-0.73608	-0.013275	-0.2005	0.15137	0.001984	-0.016479
38.951	0.002289	0.036011	-0.014648	0.013123	0.000153	-0.010681	-0.042725	-0.010223	0.030823	-0.05661	-0.092468	-0.009003	-0.012207	-0.020294	-0.063019	0.009766	0.019836	0.087585	0.31662	-0.028839	-0.018158	0.11429	-0.091858	-0.01709	-0.19348	-0.006561	-0.3537	-0.00885	-0.22156	0.14084	0	-0.01297
38.952	0.008698	0.014343	-0.050354	0.001526	0.011902	-0.033264	-0.02594	-0.00824	0.042114	-0.04715	-0.0737	-0.007782	-0.036316	-0.037079	-0.026093	0.00824	0.023804	0.22293	0.57953	-0.034027	-0.067596	0.10666	0.015259	0.10696	-0.088196	-0.007019	0.13641	-0.001526	-0.27145	0.14267	-0.001068	-0.013885
38.953	0.006256	-0.019379	-0.051727	0.002441	-0.015411	-0.047455	-0.038605	0.001831	0.021667	-0.048218	-0.055084	-0.001221	0.015259	-0.039063	0.003815	0.008545	0.024414	0.12985	0.32089	-0.025635	-0.12604	0.11368	0.09079	0.12558	-0.090027	0.002899	0.55206	-0.003662	-0.36621	0.043793	0.000305	-0.005798
38.954	0.012207	-0.035858	-0.060577	0.007782	0.018158	-0.052643	-0.023651	-0.004272	0.019989	-0.039063	-0.061035	-0.007019	0.017853	-0.050507	0.01709	0.009918	0.005646	0.076447	0.13001	-0.13519	-0.050507	0.095825	0.097046	0.1358	-0.059814	0.009766	0.60333	-0.005188	-0.21347	-0.021973	-0.00351	-0.009155
38.955	0.006866	-0.054626	-0.064392	0.009308	0.0383	-0.026855	-0.037079	-0.001831	0.015106	-0.037384	-0.020294	0.00061	0.004883	-0.099335	0.025177	0.010223	0.002747	0.11017	0.080566	-0.20874	0.010681	0.13748	0.18707	-0.057831	-0.13672	0.005493	0.40482	-0.001068	-0.1619	-0.076447	-0.002441	-0.007782
38.956	0.004272	-0.056	-0.0383	0.005493	0.031281	0	-0.036011	0.00061	0.011597	-0.053406	0.04364	-0.002289	0.020447	-0.13962	0.011139	0.010681	0.004578	0.089569	0.016937	-0.10544	0.00824	0.13062	0.27603	-0.15396	-0.15686	0.009766	0.38544	-0.00473	-0.05188	-0.023041	-0.003052	-0.001221
38.957	0.001831	-0.06897	-0.014496	0.004883	0.006866	0.016937	-0.018768	-0.001373	0.00473	-0.065002	0.057068	0.000153	0.021973	-0.13886	0.015106	-0.006866	-0.009918	0.072632	-0.1236	0.027771	0.075226	0.12741	0.42435	-0.29114	-0.14389	0.001221	0.242	-0.003204	-0.14679	0.022736	-0.006409	-0.010376
38.958	-0.011139	-0.10284	0.012817	0.005646	-0.033264	0.016632	-0.024261	0.004272	0.007019	-0.07782	0.035095	0.001221	0.043488	-0.10117	-0.005493	0.015411	-0.007477	0.054321	0.19669	0.090332	0.080566	0.11902	0.41473	-0.34439	-0.10681	-0.000305	-0.52994	-0.001526	-0.049438	0.009918	-0.00946	-0.005035
38.959	0.003052	-0.083771	-0.00351	0.005646	-0.061798	-0.063324	-0.034332	-0.002747	0.019073	-0.053406	0.024567	-0.001373	0.015869	-0.04776	-0.005341	0.012054	-0.018463	0.072021	-0.1413	0.28732	0.0383	0.1506	0.20401	-0.22842	0.056152	-0.00061	-0.76294	-0.000916	0.05127	-0.050812	-0.004425	-0.010834
38.96	0.006714	-0.09613	-0.025482	-0.001221	-0.072784	-0.084839	-0.05249	-0.004883	0.029602	-0.023193	0.039673	0.001221	-0.047455	-0.019836	0.035706	0.009918	-0.031281	0.11124	-0.11948	0.24399	-0.012817	0.16113	-0.10468	-0.083313	0.3392	-0.010071	-0.28076	-0.006256	-0.051575	-0.081482	-0.002289	-0.012817
38.961	0.009155	-0.10269	-0.024109	-0.006256	0.04776	-0.036163	-0.041046	-0.003967	0.022736	-0.027161	0.046844	-0.000763	-0.049591	0.009155	0.038452	0.010681	-0.03479	0.12421	-0.04364	0.051117	-0.007935	0.11368	-0.14008	-0.055695	0.23438	-0.009613	0.038757	-0.006104	-0.045319	-0.074921	-0.003815	-0.017395
38.962	0.016174	-0.093384	-0.00412	0.001678	0.08316	0.00412	-0.028229	-0.004578	0.030975	-0.027313	0.020294	0.002594	-0.03067	-0.018921	-0.00885	-0.002289	-0.015564	0.13199	-0.21881	0.004883	0.012665	0.10635	-0.098419	0.18005	0.063477	-0.003967	0.21118	-0.005798	0.030975	-0.021057	-0.001678	-0.013428
38.963	0.02121	-0.090332	-0.03006	0.00061	0.072021	0.01236	-0.041351	-0.00351	0.035553	-0.029907	0.017853	0.001526	-0.018768	-0.14221	-0.016022	0.007782	0.000458	0.1294	-0.095978	0.041962	0.00885	0.097351	0.26566	0.53421	0.076904	-0.009918	0.21057	-0.002441	0.030823	-0.023193	-0.002441	-0.012512
38.964	0.012665	-0.080872	-0.012054	-0.008545	0.048981	0.027771	-0.019073	-0.00351	0.030365	-0.028534	0.006104	0.000305	-0.027008	-0.30563	-0.005035	-0.002747	0.020294	0.12375	-0.034637	0.055084	-0.025024	0.045319	0.35843	0.39932	0.075226	-0.010071	0.18646	-0.003662	-0.044861	-0.090942	-0.00061	-0.015259
38.965	0.008087	-0.063324	-0.015259	0.009918	0.002289	0.00061	-0.031433	0.007782	0.026398	-0.026703	0.00885	-0.003357	-0.037842	-0.30212	-0.012054	0.002441	0.030518	0.11276	0.36972	-0.009613	-0.035248	0.056152	0.29831	0.035553	-0.024872	-0.007172	0.097961	-0.002594	-0.066071	0.002136	-0.004272	-0.01297
38.966	-0.009918	-0.11887	-0.024261	-0.003052	-0.019836	-0.019684	-0.03006	0.009155	0.02594	-0.014954	0.03006	0	-0.030975	-0.19913	0.029449	0.012512	0.011597	0.08606	0.4335	0.014038	-0.023346	0.066223	0.11368	0.003052	0.052032	-0.009613	-0.14557	-0.002136	-0.080414	0.12146	-0.001831	-0.023041
38.967	-0.01236	-0.095062	0.006104	0.004425	-0.057526	-0.015869	-0.032654	0.005341	0.032196	-0.010376	0.037079	-0.007324	-0.032196	-0.093689	0.10712	0.003967	0.000763	0.054474	0.1828	-0.018921	-0.012054	0.074768	-0.054169	0.13779	0.21927	-0.005798	-0.24323	-0.001984	-0.035706	0.032654	-0.001831	-0.020294
38.968	0.002747	-0.081329	-0.000763	0.012054	-0.13138	0.00473	-0.049744	0.005646	0.034332	-0.021973	0.027771	-0.001068	-0.027313	-0.053864	0.068512	-0.00351	-0.00061	0.12711	-0.007629	0.032043	-0.011749	0.084686	-0.22003	-0.042267	0.14801	-0.009613	-0.33508	-0.002136	0.030365	-0.062256	-0.004578	-0.013123
38.969	0.022125	-0.06073	-0.019379	-0.005493	-0.057678	0.009155	-0.038605	0.002747	0.033264	-0.033264	-0.002594	-0.00412	-0.009613	-0.077972	0.026398	0.005951	-0.012207	0.096283	-0.5574	0.078125	0.00473	0.074768	-0.36468	0.017853	0.12894	-0.005493	-0.082092	-0.008392	0.001373	-0.010223	-0.001068	-0.011444
38.97	0.017853	-0.08194	-0.059509	0.006866	0.074463	0.027466	-0.048218	-0.00351	0.034027	-0.039063	-0.008392	-0.006104	-0.007324	-0.12497	0.007782	-0.016174	-0.025177	0.059052	-0.63843	0.003052	0.004578	0.10757	-0.35751	0.1265	0.19394	0.003357	0.26215	-0.002136	-0.048065	-0.063019	-0.003662	-0.011444
38.971	0.016937	-0.083771	-0.089722	0.006714	0.098572	0.15121	-0.03891	-0.009155	0.018921	-0.072174	-0.010529	-0.007324	-0.029602	-0.1622	-0.008392	-0.00885	-0.017242	0.047607	-0.38864	-0.10101	0.00885	0.10696	-0.30228	0.048065	0.29556	0.001526	0.49255	-0.004272	-0.009155	-0.10391	-0.002899	-0.00824
38.972	0.009918	-0.071869	-0.083466	0.000763	0.039215	0.26337	-0.050049	-0.001068	0.013275	-0.096588	-0.02594	-0.010834	-0.025635	-0.079041	-0.023499	-0.000153	-0.033569	0.081482	0.39658	-0.10284	0.019684	0.121	-0.73944	-0.20554	0.42007	-0.005646	0.56305	-0.001373	-0.095215	-0.12253	-0.003204	-0.011902
38.973	0.003967	-0.10315	-0.077209	0.001831	0.006866	0.26016	-0.048981	0.00061	0.010223	-0.097961	-0.02533	-0.005035	0.010529	-0.06073	-0.017395	-0.012207	-0.03418	-0.003357	0.07782	-0.018005	0.016327	0.12833	-1.0779	-0.19012	0.34439	-0.014343	0.50781	-0.005035	-0.26489	-0.19455	-0.000305	-0.012054
38.974	0.014343	-0.099792	-0.037689	0.016785	-0.018616	0.20844	-0.023804	0.00061	0.010529	-0.025024	-0.015869	-0.004425	-0.009766	-0.092468	-0.004425	0.00946	-0.007324	-0.011444	0.20157	0.012207	0.01709	0.12436	-0.8371	0.08194	0.24078	-0.011597	0.60928	-0.003357	-0.26779	-0.27908	-0.002441	-0.017853
38.975	0.015106	-0.10574	0.031281	-0.002136	-0.069275	-0.058899	-0.028839	0.004883	0.000153	0.018463	0.03952	-0.015717	-0.024414	-0.10162	0.02533	-0.009155	0.016785	0.035858	0.079041	0.070038	0.007172	0.099945	-0.45517	0.23377	0.20874	-0.001373	0.36453	-0.00061	-0.15091	-0.28275	-0.002899	-0.014343
38.976	0.006866	-0.081635	0.017395	0.007477	-0.052185	-0.13107	-0.016022	-0.000458	-0.025024	0.039215	0.052948	-0.009918	-0.017395	-0.16617	0.060577	-0.022278	0.016785	0.007172	-0.18951	0.093231	-0.014648	0.076447	-0.026245	0.13351	-0.24765	0.014648	-0.24643	0.000153	0.17258	-0.26123	-0.001678	-0.010223
